<?xml version="1.0" encoding="utf-8"?>
<!-- Generator: Adobe Illustrator 19.0.0, SVG Export Plug-In . SVG Version: 6.00 Build 0)  -->
<svg version="1.1" id="Capa_1" xmlns="http://www.w3.org/2000/svg" xmlns:xlink="http://www.w3.org/1999/xlink" x="0px" y="0px"
	 viewBox="0 0 202.6 40.8" style="enable-background:new 0 0 202.6 40.8;" xml:space="preserve">
<style type="text/css">
	.st0{fill-rule:evenodd;clip-rule:evenodd;fill:#0F3D5C;}
	.st1{fill-rule:evenodd;clip-rule:evenodd;fill:#94BB1E;}
	.st2{fill-rule:evenodd;clip-rule:evenodd;fill:#A5A5A6;}
	.st3{fill:#0F3D5C;}
	.st4{fill:#94BB1E;}
	.st5{fill:#565859;}
</style>
<g id="XMLID_185_">
	<g id="XMLID_1026_">
		<path id="XMLID_1185_" class="st0" d="M11.7,4.9l4.6-4.6c0.5-0.5,1.3-0.5,1.8,0l4.6,4.6c0.5,0.5,0.5,1.3,0,1.8l-4.6,4.6
			c-0.5,0.5-1.3,0.5-1.8,0l-4.6-4.6C11.2,6.2,11.2,5.4,11.7,4.9z"/>
		<path id="XMLID_1184_" class="st0" d="M0.4,12.2l4.6-4.6c0.5-0.5,1.3-0.5,1.8,0l4.6,4.6c0.5,0.5,0.5,1.3,0,1.8l-4.6,4.6
			c-0.5,0.5-1.3,0.5-1.8,0L0.4,14C-0.1,13.5-0.1,12.7,0.4,12.2z"/>
		<path id="XMLID_1183_" class="st0" d="M0.4,26.8l4.6-4.6c0.5-0.5,1.3-0.5,1.8,0l4.6,4.6c0.5,0.5,0.5,1.3,0,1.8l-4.6,4.6
			c-0.5,0.5-1.3,0.5-1.8,0l-4.6-4.6C-0.1,28.1-0.1,27.3,0.4,26.8z"/>
		<path id="XMLID_1181_" class="st1" d="M17.2,40.8c0.3,0,0.7-0.1,0.9-0.4l4.6-4.6c0.5-0.5,0.5-1.3,0-1.8l-2.7-2.7
			c-0.8-0.8-1.3-1.3-1.3-2.3v-2.8c0-1.1,0.5-1.6,1.3-2.3l2.7-2.7c0.5-0.5,0.5-1.3,0-1.8l-4.6-4.6c-0.2-0.2-0.6-0.4-0.9-0.4
			c-0.3,0-0.6,0.1-0.9,0.4l-4.6,4.6c-0.5,0.5-0.5,1.3,0,1.8l2.7,2.7c0.8,0.8,1.3,1.3,1.3,2.3V29c0,1.1-0.5,1.6-1.3,2.3l-2.7,2.7
			c-0.5,0.5-0.5,1.3,0,1.8l4.6,4.6C16.5,40.7,16.8,40.8,17.2,40.8z"/>
		<path id="XMLID_1028_" class="st1" d="M28.5,33.5c0.3,0,0.6-0.1,0.9-0.4l4.6-4.6c0.5-0.5,0.5-1.3,0-1.8l-2.7-2.7
			c-0.8-0.8-1.3-1.3-1.3-2.3V19c0-1.1,0.5-1.6,1.3-2.3L34,14c0.5-0.5,0.5-1.3,0-1.8l-4.6-4.6c-0.3-0.2-0.6-0.4-0.9-0.4
			c-0.3,0-0.7,0.1-0.9,0.4L23,12.2c-0.5,0.5-0.5,1.3,0,1.8l2.7,2.7c0.8,0.8,1.3,1.3,1.3,2.3v2.8c0,1.1-0.5,1.6-1.3,2.3l-2.7,2.7
			c-0.5,0.5-0.5,1.3,0,1.8l4.6,4.6C27.9,33.4,28.2,33.5,28.5,33.5z"/>
	</g>
	<rect id="XMLID_1025_" x="43.9" y="2.9" class="st2" width="0.6" height="34.9"/>
	<g id="XMLID_193_">
		<g id="XMLID_989_">
			<path id="XMLID_1022_" class="st3" d="M54.2,10c0-5.7,3.2-7.1,8.6-7.1h9.6c5.4,0,8.6,1.3,8.6,7.1v5.8c0,5.7-3.2,7.1-8.6,7.1h-9.6
				c-5.4,0-8.6-1.3-8.6-7.1V10z M60.4,14c0,2.8,0.6,3.9,3.4,3.9h7.7c2.8,0,3.4-1.1,3.4-3.9v-2.1c0-2.4-0.6-3.9-3.8-3.9h-7
				c-3.2,0-3.8,1.5-3.8,3.9V14z"/>
			<path id="XMLID_1018_" class="st3" d="M84.9,3.2h16.4c5.7,0,7.1,2.9,7.1,6.7v1.7c0,2.9-1.3,6.3-5.5,6.3H90.9v4.9h-6V3.2z
				 M90.9,12.9h9.3c1.4,0,1.9-0.9,1.9-2.1v-0.8c0-1.3-0.6-2.1-2.5-2.1h-8.8V12.9z"/>
			<path id="XMLID_1016_" class="st3" d="M110.4,3.2h22.9V8h-8.4v14.7h-6V8h-8.4V3.2z"/>
			<path id="XMLID_1002_" class="st4" d="M136.5,3.2h6V7h-6V3.2z"/>
			<path id="XMLID_994_" class="st3" d="M136.5,9.5h6v13.3h-6V9.5z"/>
			<path id="XMLID_991_" class="st3" d="M175.7,10c0-5.7,3.2-7.1,8.6-7.1h9.6c5.4,0,8.6,1.3,8.6,7.1v5.8c0,5.7-3.2,7.1-8.6,7.1h-9.6
				c-5.4,0-8.6-1.3-8.6-7.1V10z M181.9,14c0,2.8,0.6,3.9,3.4,3.9h7.7c2.8,0,3.4-1.1,3.4-3.9v-2.1c0-2.4-0.6-3.9-3.8-3.9h-7
				c-3.2,0-3.8,1.5-3.8,3.9V14z"/>
			<path id="XMLID_990_" class="st3" d="M158.8,11.5v4.1h7.5v0.6c0,1.9-1.6,2.1-3.1,2.1h-6.4c-3,0-3.8-0.7-3.8-4.1v-2.4
				c0-3.4,0.8-4.1,3.8-4.1h15V2.9h-16.3c-5.4,0-8.6,1.3-8.6,7.1v5.8c0,5.7,3.2,7.1,8.6,7.1h7.2c6.8,0,9.7-0.3,9.7-5.9v-5.6H158.8z"
				/>
		</g>
		<g id="XMLID_194_">
			<path id="XMLID_987_" class="st5" d="M55.9,29.6h1.6l7.4,7.1v-7.1h1.1v8.1h-1.6L57,30.6v7.1h-1.1V29.6z"/>
			<path id="XMLID_985_" class="st5" d="M76,29.6h8v0.9h-6.9v2.6h6.6V34h-6.6v2.8H84v0.9h-8V29.6z"/>
			<path id="XMLID_969_" class="st5" d="M96.8,30.5h-4.1v-0.9h9.3v0.9h-4.1v7.2h-1.1V30.5z"/>
			<path id="XMLID_925_" class="st5" d="M110.1,29.6h1.1l2.8,7.1l2.8-7.1h1.4l2.7,7.1l2.9-7.1h1.1l-3.2,8.1h-1.4l-2.8-7.1l-2.8,7.1
				h-1.4L110.1,29.6z"/>
			<path id="XMLID_664_" class="st5" d="M133.6,32.6c0-2.1,0.7-3,2.9-3h4.7c2.2,0,2.9,1,2.9,3v2.2c0,2.1-0.7,3.1-2.9,3.1h-4.7
				c-2.2,0-2.9-1-2.9-3.1V32.6z M143,32.1c0-1.4-0.9-1.7-1.9-1.7h-4.5c-1.1,0-1.9,0.3-1.9,1.7v3.1c0,1.4,0.9,1.7,1.9,1.7h4.5
				c1.1,0,1.9-0.3,1.9-1.7V32.1z"/>
			<path id="XMLID_217_" class="st5" d="M153.8,29.6h6.5c2.4,0,2.7,0.8,2.7,2.3v0.7c0,1.1-0.7,1.4-1.5,1.5v0
				c1.1,0.2,1.4,0.8,1.4,1.5v2.1h-1V36c0-1.3-0.6-1.4-1.6-1.4h-5.4v3.2h-1.1V29.6z M160.2,33.6c1.2,0,1.7-0.3,1.7-1.2v-0.7
				c0-0.9-0.4-1.2-2-1.2h-5v3.1H160.2z"/>
			<path id="XMLID_206_" class="st5" d="M172.8,29.6h1.1v3.5h1.4l5.1-3.5h1.8l0,0l-5.8,3.9l6.4,4.2l0,0h-1.9l-5.6-3.8h-1.3v3.8h-1.1
				V29.6z"/>
			<path id="XMLID_205_" class="st5" d="M197.8,33.2h-3.3c-1.7,0-2-0.3-2-1.3c0-1.3,0.8-1.5,2.9-1.5h5v-0.9h-5.5
				c-2.3,0-3.4,0.4-3.4,2.3c0,2.2,1.1,2.4,4.5,2.4h2.1c1.4,0,1.8,0.3,1.8,1.3c0,1.2-0.5,1.5-2.1,1.5h-5.9v0.9h5.8
				c1.6,0,3.3-0.2,3.3-2.2v-0.5C200.9,33.8,200,33.2,197.8,33.2z"/>
		</g>
	</g>
</g>
</svg>
